<?xml version="1.0" encoding="utf-8"?>
<!-- Generator: Adobe Illustrator 28.0.0, SVG Export Plug-In . SVG Version: 6.00 Build 0)  -->
<svg version="1.1" id="Layer_1" xmlns="http://www.w3.org/2000/svg" xmlns:xlink="http://www.w3.org/1999/xlink" x="0px" y="0px"
	 viewBox="0 0 100 100" style="enable-background:new 0 0 100 100;" xml:space="preserve">
<style type="text/css">
	.st0{display:none;}
	.st1{display:inline;fill:#DFE0E2;}
	.st2{fill:#111211;}
	.st3{fill:#B2BCC0;}
	.st4{fill:#DFE0E2;}
	.st5{fill:#272929;}
	.st6{fill:#565855;}
	.st7{fill:url(#SVGID_1_);}
	.st8{fill:#4C977E;}
	.st9{fill:#70B19A;}
	.st10{fill:#F8F7F5;}
	.st11{fill:#C8C8C8;}
	.st12{fill:#60998B;}
	.st13{fill:#B9AFA9;}
	.st14{fill:#656666;}
	.st15{font-family:'Bungee-Regular';}
	.st16{font-size:7.5121px;}
</style>
<g>
	<g id="Background_00000055680746120146390900000011687041734189516220_" class="st0">
		<path class="st1" d="M0.05,98.35c0-48.91,0-48.91,0-97.83c49.2,0,49.2,0,98.4,0c0,49.2,0,49.2,0,98.4c-0.12,0.01-0.26-0.02-0.38,0
			c-0.22-0.19-0.22-0.19-0.43-0.38c-22.42-0.25-44.85-0.19-67.27-0.19c-1.23,0-2.52,0.19-3.75,0.19c-0.44,0-0.55-0.19-0.58-0.19
			C17.38,98.35,8.72,98.62,0.05,98.35z"/>
		<path class="st1" d="M98.07,98.92c-49.01,0-49.01,0-98.02,0c0-0.29,0-0.29,0-0.58c8.66,0.28,17.33,0,25.99,0
			c0.03,0,0.13,0.19,0.58,0.19c1.23,0,2.52-0.19,3.75-0.19c22.42,0,44.85-0.06,67.27,0.19C97.85,98.73,97.85,98.73,98.07,98.92z"/>
		<path class="st1" d="M55.84,73.27c-0.44,1.67-1.17,1.63,0.58,2.98c-7.09-0.02-7.09-0.02-14.17-0.05c1.1-0.76,1.53-1.34,0.86-2.59
			c0.07-0.07,0.07-0.07,0.14-0.14C47.39,74.22,51.74,74.28,55.84,73.27z"/>
	</g>
	<g>
		<g>
			<path class="st2" d="M73.33,30.5c0.84,0.36,0.84,0.36,1.68,0.72c-0.26,0.98-0.26,0.98-0.53,1.97c-0.98-0.41-0.98-0.41-1.97-0.82
				C72.92,31.44,72.92,31.44,73.33,30.5z"/>
			<g>
				<path class="st3" d="M69.91,26.37c0.02,0.09,0.11,0.36,0.19,0.38c-0.26,0.31-0.66,0.94-1.2,0.86c-0.16-0.02-1.45-1.15-1.68-1.63
					c-0.01-0.03-0.07-0.21-0.1-0.29c-0.45-1.39-0.13-2.74,0.77-3.84c0.32-0.29,0.29,0.64,0.48,1.11c0.36,0.87,1.25,1.97,1.35,2.21
					C69.78,25.31,69.79,25.89,69.91,26.37z"/>
				<path class="st4" d="M69.63,21.09c0.32,0.18,0.02,0.41,0.1,0.91c0.15,1.04,1.02,3.51,0.19,4.37c-0.12-0.48-0.13-1.06-0.19-1.2
					c-0.09-0.24-0.98-1.34-1.35-2.21c-0.19-0.46-0.16-1.39-0.48-1.11C68.47,21.15,68.64,21,69.63,21.09z"/>
				<path class="st4" d="M70.11,26.75c-0.09-0.03-0.17-0.3-0.19-0.38c0.82-0.87-0.04-3.33-0.19-4.37c-0.07-0.5,0.23-0.73-0.1-0.91
					C72.47,21.33,71.33,25.3,70.11,26.75z"/>
			</g>
			<g>
				<path class="st2" d="M64.63,25.41c1.37,0.86,1.37,0.86,2.74,1.73c0.26-0.12-0.64-1.23-0.14-1.15c0.23,0.48,1.53,1.61,1.68,1.63
					c0.54,0.07,0.94-0.55,1.2-0.86c1.23-1.45,2.36-5.42-0.48-5.67c-0.98-0.08-1.16,0.06-1.73,0.77c-0.9,1.1-1.22,2.45-0.77,3.84
					c-0.66,0.03-0.17-0.69-0.34-0.86c-0.06-0.06-1.05-0.3-1.49-0.58c-0.19-0.12-0.39-0.26-0.58-0.38c-0.24-0.16-1.83-1.54-1.97-1.54
					c-0.12,0-0.43,0.59-0.43,0.62c0,0.18,1.79,1.8,2.11,1.87c-0.03,0.07,0.07,0.26-0.14,0.38c-2.33-2.02-2.94-1.64-1.49-3.99
					c-1.34-0.89-3.48-3.02-2.07-2.16c1.28,0.77,4,3.93,6.1,4.28c1.24-4.33,6.35-3.03,4.18,2.45c2.07,1.15,2.07,1.15,4.13,2.31
					c6.51,2.76,6.51,2.76,13.02,5.53c-1.35-0.01-8.58-2.98-9.08-2.93c-0.63,0.07-0.04,1.13-0.58,1.15c-0.08,0-0.93-0.44-1.44-0.58
					c-2.35-0.62-4.81-1.07-7.06-1.87c1.79,0.77,1.19,0.28,0.67,2.4c-1.03-0.26-1.03-0.26-2.07-0.53c-0.07-0.07-0.07-0.07-0.14-0.14
					c0.48-0.91,0.48-0.91,0.96-1.83c-1.68-1.67-1.37,0.51-1.78,0.72c-0.04,0.02-0.74-0.07-0.77-0.1c-0.18-0.17,0.6-1.63,0.53-1.87
					c-0.05-0.18-2.78-1.58-3.12-1.97c-0.8,1.54-0.15,1.81-2.16,1.01c0.84-1.76,0.25-1.93,2.26-1.39
					C64.48,25.61,64.54,25.51,64.63,25.41z"/>
				<g>
					<path class="st5" d="M67.13,25.7c0.02,0.08,0.08,0.26,0.1,0.29c-0.49-0.07,0.4,1.04,0.14,1.15C66,26.27,66,26.27,64.63,25.41
						c0.18-0.2,0.34-0.88,0.67-1.15c0.44,0.28,1.43,0.52,1.49,0.58C66.96,25.01,66.47,25.73,67.13,25.7z"/>
					<path class="st6" d="M64.72,23.87c-0.06,0.35-0.14,0.63-0.29,0.96c-0.33-0.08-2.11-1.69-2.11-1.87c0-0.04,0.31-0.63,0.43-0.62
						C62.9,22.34,64.48,23.71,64.72,23.87z"/>
					<path class="st5" d="M74.33,28.97c0.01,0.01-0.05,0.05,0.1,0.19c0.13,0.13,0.07-0.21,0.58,0.72c-0.07,0.67-3.94-1.12-4.37-1.3
						c-0.36-0.14-1.48-0.07-1.54-0.77c0.46,0.01,1.38-0.77,1.54-0.77C70.84,27.05,74.05,28.73,74.33,28.97z"/>
					<path class="st4" d="M75.63,30.02c0.14-0.02,2.58,0.68,2.69,0.77c1.07,0.83-1.58-0.07-2.83-0.62
						C75.54,30.12,75.6,30.03,75.63,30.02z"/>
					<path class="st4" d="M74.43,29.16c-0.14-0.14-0.09-0.19-0.1-0.19c1.11-1.13,1.84,0.49,1.59,0.58
						C75.54,28.79,75.05,28.39,74.43,29.16z"/>
				</g>
			</g>
		</g>
		<g>
			<path class="st2" d="M61.6,77.01c0.59-0.26,4.21,0.29-0.1,0.19C61.41,77.18,61.53,77.04,61.6,77.01z"/>
			<linearGradient id="SVGID_1_" gradientUnits="userSpaceOnUse" x1="49.0271" y1="36.0263" x2="48.5011" y2="72.0587">
				<stop  offset="0.208" style="stop-color:#57A085"/>
				<stop  offset="1" style="stop-color:#152421"/>
			</linearGradient>
			<path class="st7" d="M48,32.52c-1,0.32-2.66,1.13-3.41,1.83c-0.71,0.65-0.5,0.74-0.53,0.77c-0.55,0.57-4.35,4.81-4.42,5.14
				c-0.02,0.08,0.26,0.77,0.19,1.06c-0.14,0.58-4.91,2.9-4.52,8.26c0.49,6.7,6.98,3.85,7.78,4.71c0.36,1.95,0.82,3.88,1.73,5.67
				c0.09,1.05-1.71,1.46,0,5.86c0.25,0.65,1.95,3.86,2.45,4.08c0.86,0.38,2.11-0.43,2.79-0.96c2.34-1.82,3.65-5.7,3.94-5.48
				c0.06,4.83,2.53,3.6,3.32-0.05c0.73-3.39-0.67-4.68-2.55-2.26c-0.22-1.56-0.22-1.56-0.43-3.12c0.68-0.89,2.23-3.33,2.59-4.18
				c1.38,0.11,2.82,0.78,4.18,1.15c2.53,0.7,5.13,1.15,7.64,1.92c0.15,0.41,0.49,0.55,0.48,0.91c-1.26,4.13-3.25,6.55-6.15,9.61
				c0.03,0.57,3.05-1.34,2.98-0.67c-0.05,0.49-3.92,3.24-4.56,3.6c-5.99,3.33-15.65,3.64-21.91,0.96c-0.3-0.13-3.28-1.5-2.69-1.92
				c3.1,0.35-1.28-1.74-2.35-4.47c1.49-3.89,0.4-3.72,0.38-4.23c-0.01-0.23,1.18-3.74,1.06-4.52c-0.2-1.24-4.13-2.66-4.37-2.93
				c-0.49-0.56,0.53-2-3.32-4.18c0.41-0.88,0.42-2.57,0.58-2.98c0.22-0.56,1.19-0.65,0.58-1.78c4.3-3.57,5.24-5.84,10.43-8.65
				c0.7-0.38,3.21-1.32,3.46-1.54c0.53-0.47-0.08-0.61,0.34-0.86C44.98,32.97,46.74,32.47,48,32.52z"/>
			<path class="st8" d="M68.76,56.93c-2.51-0.77-5.11-1.23-7.64-1.92c-1.36-0.37-2.8-1.05-4.18-1.15c1.76-4.13-0.62-2.62-0.86-3.12
				c2.99-1.24,4.34-4.2,4.66-4.18c1.23,0.74,1.23,0.74,2.45,1.49c0.25,0.7,1.51,4.89,1.97,5.05c0.53,0.18,1.26-0.54,1.39-1.01
				c0.23-0.82-0.41-3.19,0.1-2.59c0.29,0.35,0.19,1.97,0.38,2.79C67.18,52.91,68.35,55.78,68.76,56.93z"/>
			<path class="st9" d="M43.68,33.29c-0.41,0.26,0.2,0.39-0.34,0.86c-0.25,0.22-2.76,1.16-3.46,1.54
				c-5.18,2.81-6.13,5.08-10.43,8.65c-0.04-0.07-0.4-0.56-0.43-0.58c-1.08-0.59-2.62,2.75-1.3-0.53c0.12-0.31,1.14-2.25,1.3-2.35
				c0.01-0.01,0.18,0.2,0.19,0.19c0.38-0.32,2.48-2.44,2.79-2.4c0.22,0.03,0.34,0.74,0.58,0.77c0.12,0.01,1.87-1,2.11-1.15
				c1.72-1.1,2.79-2.56,4.32-3.84c1.06,0.15,2.36-0.67,3.46-0.96C42.76,33.41,43.36,33.37,43.68,33.29z"/>
			<path class="st9" d="M70.78,45.01c0.07-0.23,0.18-0.46,0.29-0.67c0.59,1.52,1.89,6,1.44,7.35c-0.03,0.09-0.93,0.74-1.01,0.72
				c-0.51-0.11-1.09-4.94-2.16-2.55C69,48.18,69,48.18,68.66,46.5c0.89-0.17,0.89-0.17,1.78-0.34
				C70.6,46.04,70.61,45.54,70.78,45.01z"/>
			<g>
				<g>
					<path class="st4" d="M71.07,44.34c-0.11,0.21-0.22,0.44-0.29,0.67c-3.81-1.08-0.04,0.82-2.98,0.43
						c0.31,1.85,1.06,3.8,0.86,5.67c0.22,0.16,0.67,1.64,0.67,1.73c-0.01,0.35-0.67,0.74-0.72,0.72c-0.19-0.08-1.24-3.07-0.82-3.99
						c-0.47-0.22-1.56-2.23-1.92-1.54c-0.33,0.63,0.48,4.45-0.43,4.08c-0.22-0.09-1.34-4.04-1.59-4.56
						c-0.69-1.06-4.89-2.53-5.33-2.83c-0.14-0.1-2.23-2.39-2.59-2.4c-0.1,0-0.53,0.33-0.53,0.43c0,0.16,1.99,1.76,2.11,2.31
						c1.13,0.5,1.13,0.5,2.26,1.01c-0.39,1.88-2.93,3.15-4.61,3.94c-1.32-3.01-3.12-5.87-3.75-9.13c-3.36,1.27-2.21-2.6-6.53-1.54
						c-0.43,0.11-5.07,2.72-4.66,0.91c0.07-0.29,3.77-3.76,4.28-4.28c0.38-0.04,5.19-0.78,4.13-1.63c-1.15,0.38-4.03,1.2-4.56,0.77
						c0.03-0.03-0.18-0.12,0.53-0.77c0.75-0.69,2.41-1.51,3.41-1.83c1.77-0.56,3.7-0.9,5.53-0.38c0.2-0.35-0.19-0.57-0.29-0.86
						c0.84-0.04,5.49,1.37,2.69,0.19c-1.63-0.69-3.58-0.94-5.33-0.86c-0.07-0.24,0.19-0.18,0.19-0.24c0-0.06-0.26,0-0.19-0.24
						c7.23,0.65,12.75,2.73,17.3,8.6C69.24,40.46,70.27,42.29,71.07,44.34z"/>
					<path class="st2" d="M50.45,39.25c0.09-0.06,1.95,0.5,2.02,0.58c0.08,0.09-0.11,0.7-0.14,0.72c-0.08,0.06-1.8-0.46-1.87-0.53
						C50.28,39.87,50.42,39.27,50.45,39.25z"/>
				</g>
				<g>
					<path class="st2" d="M49.16,30.89c-2.4,1.54-1.34,0.81,0.91,0.58c2.39-0.25,4.42-0.02,0.43-0.86c0.03,0,0.06,0,0.1,0
						c1.75-0.07,3.7,0.18,5.33,0.86c2.8,1.18-1.85-0.23-2.69-0.19c0.1,0.3,0.49,0.51,0.29,0.86c-1.82-0.52-3.75-0.18-5.53,0.38
						c-1.27-0.05-3.02,0.45-4.32,0.77c-0.32,0.08-0.92,0.12-1.2,0.19c-1.1,0.29-2.4,1.11-3.46,0.96c-1.54,1.28-2.6,2.74-4.32,3.84
						c-0.25,0.16-1.99,1.17-2.11,1.15c-0.23-0.03-0.36-0.74-0.58-0.77c-0.31-0.04-2.4,2.08-2.79,2.4c-0.01,0.01-0.18-0.2-0.19-0.19
						c-0.16,0.1-1.17,2.05-1.3,2.35c-1.32,3.28,0.22-0.06,1.3,0.53c0.03,0.02,0.4,0.51,0.43,0.58c0.62,1.13-0.36,1.22-0.58,1.78
						c-0.16,0.41-0.16,2.1-0.58,2.98c3.84,2.18,2.82,3.62,3.32,4.18c0.24,0.27,4.18,1.69,4.37,2.93c0.12,0.77-1.06,4.28-1.06,4.52
						c0.01,0.51,1.1,0.34-0.38,4.23c1.08,2.73,5.46,4.81,2.35,4.47c-0.59,0.42,2.39,1.79,2.69,1.92c6.26,2.68,15.92,2.37,21.91-0.96
						c0.65-0.36,4.51-3.11,4.56-3.6c0.07-0.66-2.94,1.24-2.98,0.67c2.9-3.06,4.89-5.48,6.15-9.61c0.01-0.36-0.33-0.5-0.48-0.91
						c-0.41-1.15-1.58-4.02-1.73-4.66c-0.19-0.82-0.09-2.44-0.38-2.79c-0.5-0.6,0.14,1.77-0.1,2.59c-0.13,0.47-0.86,1.18-1.39,1.01
						c-0.46-0.15-1.72-4.34-1.97-5.05c-1.23-0.74-1.23-0.74-2.45-1.49c-0.32-0.02-1.67,2.94-4.66,4.18c0.25,0.5,2.63-1,0.86,3.12
						c-0.36,0.85-1.92,3.29-2.59,4.18c0.22,1.56,0.22,1.56,0.43,3.12c1.87-2.42,3.28-1.13,2.55,2.26c-0.79,3.65-3.26,4.87-3.32,0.05
						c-0.29-0.22-1.6,3.66-3.94,5.48c-0.68,0.53-1.92,1.34-2.79,0.96c-0.5-0.22-2.2-3.43-2.45-4.08c-1.71-4.4,0.09-4.81,0-5.86
						c-0.91-1.79-1.37-3.72-1.73-5.67c-0.81-0.86-7.29,2-7.78-4.71c-0.4-5.36,4.38-7.68,4.52-8.26c0.07-0.28-0.21-0.98-0.19-1.06
						c0.07-0.33,3.87-4.58,4.42-5.14c0.54,0.43,3.42-0.39,4.56-0.77c1.06,0.86-3.75,1.6-4.13,1.63c-0.51,0.51-4.21,3.98-4.28,4.28
						c-0.41,1.81,4.23-0.81,4.66-0.91c4.32-1.06,3.18,2.81,6.53,1.54c0.63,3.26,2.42,6.12,3.75,9.13c1.69-0.79,4.22-2.06,4.61-3.94
						c-1.13-0.5-1.13-0.5-2.26-1.01c-0.12-0.55-2.11-2.15-2.11-2.31c0-0.1,0.42-0.44,0.53-0.43c0.36,0.01,2.45,2.3,2.59,2.4
						c0.44,0.31,4.64,1.77,5.33,2.83c0.25,0.53,1.36,4.48,1.59,4.56c0.91,0.36,0.1-3.45,0.43-4.08c0.36-0.69,1.46,1.31,1.92,1.54
						c-0.43,0.91,0.63,3.91,0.82,3.99c0.05,0.02,0.71-0.38,0.72-0.72c0-0.09-0.45-1.57-0.67-1.73c0.19-1.87-0.56-3.82-0.86-5.67
						c2.94,0.39-0.84-1.51,2.98-0.43c-0.17,0.53-0.18,1.03-0.34,1.15c-0.89,0.17-0.89,0.17-1.78,0.34c0.34,1.68,0.34,1.68,0.67,3.36
						c1.07-2.4,1.66,2.44,2.16,2.55c0.08,0.02,0.98-0.63,1.01-0.72c0.45-1.36-0.85-5.83-1.44-7.35c-0.8-2.05-1.82-3.88-3.17-5.62
						c-4.55-5.87-10.07-7.95-17.3-8.6c-0.58-0.05-1.21,0.04-1.78-0.19c7.54-0.15,14.23,2.3,19.08,8.22
						c4.28,5.23,6.36,12.85,4.32,19.41c-0.53,1.72-0.23,0.45-0.48-0.38c-0.37,1.67,0.01,1.64,0,1.73c-0.48,3.28-4.52,8.47-7.59,9.99
						c0.03,0.13,2.15-0.5,2.64-0.53c3.98-0.21,6.2,2.89,9.9,2.4c0.09,2.19,1.21-0.14,2.16,2.64c-4.66,1.49-4.66,1.49-9.32,2.98
						c4.92,0.15,9.86,0.16,14.75,0.62c-10.19,0.1-10.19,0.1-20.37,0.19c-0.1-0.67-0.1-0.67-0.19-1.35c-1.89,0.11-2.55-0.52-2.5,1.15
						c-7.43,0.24-16.54-0.32-23.74,0c-0.11,0.01-0.59,0.34-2.21,0.19c-0.57-0.33,2.11,0.01,2.35-0.62c0.42-1.12-2.03-0.6-2.64-0.72
						c-0.14,0.67-0.14,0.67-0.29,1.35c-10.02-0.12-10.02-0.12-20.04-0.24c5.01-0.29,10.02-0.53,15.04-0.53
						c-3.3-1.05-6.75-1.85-9.95-3.12c0.87-2.05,1.62-1.27,1.87-1.59c0.1-0.12,0-0.65,0.19-0.77c0.11-0.07,2.36-0.25,2.5-0.29
						c3.37-0.93,4.5-3.68,11.77-1.2C26.81,65.26,23.33,53.12,26.86,44c1.98-5.11,7.39-9.68,12.44-11.58c2.65-1,0.19,0.04-0.77,0.48
						c-3.43,1.59-6.59,3.86-8.74,7.02c3.22-3.05,10.12-7.34,14.32-8.36C45.75,31.16,47.5,31.06,49.16,30.89z"/>
					<g>
						<path class="st3" d="M50.5,30.6c3.99,0.84,1.95,0.62-0.43,0.86c-2.25,0.23-3.31,0.97-0.91-0.58
							C49.61,30.84,50.06,30.73,50.5,30.6z"/>
						<g>
							<path class="st10" d="M23.79,73.75c3.09,0.48,7.2,0.46,10.33,0.19c3.22-0.28-2.36-0.55-3.17-0.58
								c-2.73-0.09-5.49-0.01-8.22,0.1c-0.3-0.08-2.28-0.39-2.31-0.53c2.64-0.47,7.69-3.26,8.7-3.51c4.47-1.09,8.18,2.7,12.11,4.13
								c1.41,2.61-3.31,1.33-4.8,1.63c0.07-4.46-0.68-4.42-0.53-0.05c-2.64,0.43-5.27,0.15-7.93-0.34
								C26.56,74.55,25.18,74.1,23.79,73.75z"/>
							<path class="st11" d="M23.79,73.75c-0.36-0.09-0.7-0.2-1.06-0.29c2.73-0.11,5.49-0.18,8.22-0.1c0.81,0.03,6.39,0.3,3.17,0.58
								C30.99,74.21,26.88,74.23,23.79,73.75z"/>
						</g>
						<path class="st4" d="M56.41,60.87c0.8,0.08-0.53,4.22-1.15,4.61C54.51,64.77,55.5,60.78,56.41,60.87z"/>
						<path class="st4" d="M47.19,31.18c0.08,0,0.3-0.03,0.34,0.05c-1.09,0.35-2.2,0.92-3.32,1.2c-0.23,0.06-0.14-0.32-0.48-0.29
							c-0.22,0.02-3.3,1.79-3.99,1.78C40.87,32.65,45.82,31.23,47.19,31.18z"/>
						<path class="st4" d="M37,35.31c-0.86,0.91-0.86,0.91-1.73,1.83c-0.32,0.11-2.75,2.22-2.64,1.3
							C32.66,38.16,36.5,35.69,37,35.31z"/>
						<g>
							<path class="st11" d="M27.82,49.63c-0.21-0.04-0.45,0.03-0.58,0.24c1.4,0.92,3.35,3,2.98,1.59c0.55,0.77,0.52,1.57,0.77,2.45
								c2.02,1.2,2.02,1.2,4.04,2.4c-0.37,3.46-1.51,4.18-1.54,4.42c-0.06,0.41,0.87,1.22,0.86,1.63c-0.02,1.09-2.75,2.12,1.92,6.25
								c-4.37-1.23-8.39-7.61-9.51-11.82c-0.69-2.58-1.51-9.66,1.25-9.13C27.92,48.64,27.92,48.64,27.82,49.63z"/>
							<path class="st4" d="M27.82,49.63c0.28,0.05,2.16,1.48,2.4,1.83c0.37,1.41-1.58-0.66-2.98-1.59
								C27.37,49.66,27.62,49.59,27.82,49.63z"/>
						</g>
						<path class="st4" d="M27.01,46.07c0.23-0.11,2.76,0.68-0.19,1.06C26.6,47.12,26.95,46.1,27.01,46.07z"/>
						<g>
							<g>
								<path class="st11" d="M53.87,49.05c-0.43-0.07,0.13,0.43,0.1,0.72c-0.1,0.89-1.5,1.32,1.25,2.31
									c-0.62,1.85-0.97,3.84-2.4,5.29c0.26,1.72,0.27,3.43,0.38,4.9c0.14,0.1,0.14,0.1,0.29,0.19C53,62.86,53,62.86,52.52,63.27
									c0.46,1.3-3.62,5.76-4.56,5.57c-0.56-0.66-1.06-1.41-1.49-2.16c-2.87-5.08-0.64-5.55-0.77-6.92
									c-1.15-1.82-1.57-5.27-1.73-5.57c-1.1-2.1-5.04,0.23-7.02-2.5c-0.8-1.1-1.01-2.72-0.86-4.04c0.37-3.28,5.67-8.12,8.22-6.39
									c1.34,0.91,0.53,2.09,7.11,2.11C51.7,43.49,53.7,48.43,53.87,49.05z"/>
								<path class="st4" d="M53.87,49.05c0.37,1.38,0.06,0.73,0,1.2c-0.19,1.47,3.08,0.51,2.98,1.73
									c-0.06,0.69-2.74,4.84-3.46,5.67c-0.13,2.78,1.38,4.98-0.86,5.62c0.48-0.41,0.48-0.41,0.96-0.82
									c-0.14-0.1-0.14-0.1-0.29-0.19c-0.12-1.47-0.12-3.19-0.38-4.9c1.43-1.44,1.78-3.44,2.4-5.29c-2.75-0.99-1.35-1.41-1.25-2.31
									C53.99,49.48,53.43,48.98,53.87,49.05z"/>
							</g>
							<path class="st4" d="M71.02,57.6c1.21,0.16-0.54,4.8-2.11,5.96c-0.48,0.35-1.1,0.52-1.63,0.77c0.42-1.08,1.36-2.16,1.87-3.32
								C69.86,59.42,69.86,57.45,71.02,57.6z"/>
							<path class="st12" d="M45.94,39.92c1.96-0.19,2.23,1.39,3.46,1.83c0.39,0.14,1.38,0.15,1.44,0.19
								c0.12,0.07,0.27,0.68,0.24,0.72c-0.14,0.18-4.13-0.22-4.56-0.43c-0.8-0.39-0.3-1.41-1.97-1.2c3.76,0.3,2.92-1.34-0.19-0.58
								C44.75,40.34,45.69,39.94,45.94,39.92z"/>
							<path class="st4" d="M70.73,53.47c1.37,1.78,0.82,2.26-0.96,3.27c-0.46-1.08-0.46-1.08-0.91-2.16
								C69.79,54.02,69.79,54.02,70.73,53.47z"/>
							<path class="st4" d="M68.52,64.52c-0.62,0.67-0.62,0.67-1.25,1.35c-0.79,0.26-0.79,0.26-1.59,0.53
								C66.75,64.75,66.98,65.24,68.52,64.52z"/>
							<path class="st4" d="M72.46,52.8c-0.1,1.68-0.1,1.68-0.19,3.36C72.38,54.15,71.57,53.28,72.46,52.8z"/>
							<path class="st13" d="M69.96,50.01c0.38,1.2,0.38,1.2,0.77,2.4C70.37,52.65,69.94,50.28,69.96,50.01z"/>
						</g>
						<path class="st3" d="M28.74,44.34c0,0.06,0.15,0.23,0.14,0.24C28.86,44.78,27.08,46.27,28.74,44.34z"/>
						<g>
							<path class="st10" d="M66.98,69.13c2.8-0.24,7.6,3.15,11,3.8c-5.5,1.37-5.5,1.37-11,2.74c-0.81-0.67-2.66-0.3-4.04-0.48
								c-0.04-4.43-0.49-4.49-0.48,0c-2.51-0.23-5.84,0.78-5.14-1.3C57.5,73.38,66.03,69.22,66.98,69.13z"/>
							<path class="st13" d="M66.02,73.46c2.89-0.19,5.9,0.02,8.79,0.14c0.04,0.53-9.84,0.33-10.62,0.24c0-0.1,0-0.1,0-0.19
								C64.8,73.66,65.42,73.5,66.02,73.46z"/>
						</g>
					</g>
				</g>
			</g>
		</g>
		<g>
			<path class="st2" d="M27.58,31.66c0.17-0.01,0.74-0.04,0.82,0.05c0.48,3.75,0.47,1.19-2.26,2.83
				C25.5,32.65,25.25,31.78,27.58,31.66z"/>
			<path class="st2" d="M40.84,28.29c1.63-0.3,1.4,0.59,2.07,1.97c-1.37,0.26-1.37,0.26-2.74,0.53
				C39.94,29.91,39.81,28.48,40.84,28.29z"/>
			<g>
				<path class="st2" d="M43.39,26.08c-0.58-0.06-3.02,0.85-3.94,0.86c-0.89-1.57-0.59,0.69-0.24,0.77c0.24-0.01,0.5-0.28,0.53-0.29
					c1.33-0.28,2.85-0.57,4.04-1.06c0.55,0.08,0.96,0.25,1.35-0.34c-2.45,1.06-1.87-2.1-0.14-1.3c0.77,0.36,0.57,1.74-0.1,2.21
					c-0.64,0.45-4.9,1.04-5.19,1.25c-0.54,0.39,0.4,1.42-2.59,0.96c-2.26,4.01-6.08-0.83-3.51,3.8c-1.27,0.41-1.27,0.41-2.55,0.82
					c-0.94-1.52-1.22-1.84,0.29-2.88c-1.26-0.1-4.72,0.65-5.48,0.48c-0.54-0.12-0.81-0.84-0.86-0.86c-0.38-0.15-3.48,0.35-3.65,0.29
					c-0.21-0.07-0.2-0.81-0.29-0.86c-0.44-0.27-9,1.05-10.28,0.96c0-0.1,0-0.1,0-0.19c6.63-1.32,13.34-2.19,19.89-3.84
					c0.07-0.12,0.07-0.12,0.14-0.24c-0.7-1.93-1.02-4.29,0.29-6.05c-0.87-2.09-1.45-4.29-1.97-6.49c1.13,3,1.13,3,2.26,6.01
					c0.12,0.07,0.12,0.07,0.24,0.14c4.95-2.69,5.77,5.3,6.25,5.48c3.12-0.82,3.12-0.82,6.25-1.63c14.89-5.22,17.97-6.36,1.15,0.67
					C43.93,23.69,42.91,24.61,43.39,26.08z"/>
				<g>
					<path class="st14" d="M43.39,26.08c0.26,0.03,0.36,0.28,0.38,0.29c-1.19,0.49-2.7,0.78-4.04,1.06
						c-0.13-0.07-0.2-0.32-0.29-0.48C40.37,26.93,42.81,26.02,43.39,26.08z"/>
					<path class="st5" d="M27.44,30.31c0.45-0.29,0.6-1.08,0.38-1.54c0.91,0.06,1.22-0.18,1.3-0.19c0.92-0.13,1.87-0.15,2.79-0.29
						c0.32,0.71,0.96,1.19,1.68,1.39C30.51,30,30.51,30,27.44,30.31z"/>
					<path class="st5" d="M37.19,27.24c1.53-0.01,1.95-0.31,1.63,1.44C37.29,28.31,35.82,29.26,37.19,27.24z"/>
					<path class="st4" d="M24.12,29.64c2.41-0.08-1.32,0.7-2.4,0.67C20.37,30.28,22.55,29.69,24.12,29.64z"/>
					<path class="st10" d="M39.45,26.95c0.09,0.16,0.16,0.41,0.29,0.48c-0.03,0.01-0.28,0.27-0.53,0.29
						C38.86,27.64,38.56,25.38,39.45,26.95z"/>
					<g>
						<path class="st4" d="M35.8,21.37c-0.1,0.02-0.1,0.02-0.19,0.05c0.34,0.21,0.02,0.39,0,0.48c-0.08,0.46,0.47,0.83-0.38,0.53
							c0.04-0.24-0.78-0.56-0.91-0.58c-4.25-0.64-2.69,6.83,0.24,6.82c-0.31,0.61,0.74,0.22,1.01-0.1c0.02,0.1,0.02,0.1,0.05,0.19
							c-3.26,2.29-6.21-4.94-4.13-7.83C32.58,19.41,34.64,19.73,35.8,21.37z"/>
						<g>
							<path class="st11" d="M36.28,27.04c0.05,0.34,0.05,0.34,0.1,0.67c-0.21,0.48-0.32,0.74-0.77,1.06
								c-0.02-0.1-0.02-0.1-0.05-0.19c-0.27,0.31-1.32,0.71-1.01,0.1c1.41,0-0.05-0.14-0.24-0.19c-1.65-0.42-2.5-2.91-2.35-4.42
								C32.67,23.48,33.6,26.57,36.28,27.04z"/>
							<path class="st4" d="M35.8,21.37c1.2,1.7,1.41,4.46,0.58,6.34c-0.05-0.34-0.05-0.34-0.1-0.67c0.82-0.29-0.03-1.03-0.67-1.78
								c-0.62-0.72-2.36-2.67-3.27-2.35c0.97-1.57,2.35-0.67,2.88-0.48c0.85,0.31,0.3-0.07,0.38-0.53c0.02-0.09,0.34-0.27,0-0.48
								C35.7,21.4,35.7,21.4,35.8,21.37z"/>
							<path class="st2" d="M35.22,22.43c-0.53-0.19-1.92-1.09-2.88,0.48c-0.16,0.26-0.36,0.86-0.38,1.15
								c-0.15,1.51,0.7,4,2.35,4.42c0.19,0.05,1.65,0.19,0.24,0.19c-2.94,0-4.49-7.47-0.24-6.82
								C34.45,21.87,35.26,22.19,35.22,22.43z"/>
							<path class="st4" d="M36.28,27.04c-2.68-0.47-3.61-3.57-4.32-2.98c0.03-0.3,0.22-0.89,0.38-1.15
								c0.91-0.31,2.65,1.63,3.27,2.35C36.25,26.01,37.1,26.75,36.28,27.04z"/>
						</g>
					</g>
					<g>
						<path class="st10" d="M27.82,28.77c0.21,0.45,0.07,1.25-0.38,1.54c-1.09,0.7-2.42-0.52-1.73-1.68
							C26.27,27.68,27.61,28.31,27.82,28.77z"/>
						<path class="st2" d="M26.43,28.39c1.53-0.35,1.7,2.22,0,1.83C25.6,30.02,25.61,28.57,26.43,28.39z"/>
					</g>
				</g>
			</g>
		</g>
	</g>
</g>
<text transform="matrix(1 0 0 1 23.5588 84.3445)" class="st15 st16">WX tourism</text>
</svg>
